<svg xmlns="http://www.w3.org/2000/svg" width="512" height="512" viewBox="0 0 512 512">
  <rect width="512" height="512" rx="120" fill="#115e59"/>
  <circle cx="256" cy="256" r="160" fill="rgba(255,255,255,0.05)"/>
  <g transform="translate(128, 128) scale(10.6)">
    <path d="M11 18l-2 2-2.3-2.3a2.4 2.4 0 0 1 0-3.4l.4-.4a2.4 2.4 0 0 1 3.4 0l.5.5" fill="none" stroke="#fbbf24" stroke-width="2" stroke-linecap="round" stroke-linejoin="round"/>
    <path d="M18 11l2 2 2.3 2.3a2.4 2.4 0 0 1 0 3.4l-.4.4a2.4 2.4 0 0 1-3.4 0l-.5-.5" fill="none" stroke="#fbbf24" stroke-width="2" stroke-linecap="round" stroke-linejoin="round"/>
    <path d="M8 11l4 4" fill="none" stroke="#fbbf24" stroke-width="2" stroke-linecap="round" stroke-linejoin="round"/>
    <path d="M16 15l-4-4" fill="none" stroke="#fbbf24" stroke-width="2" stroke-linecap="round" stroke-linejoin="round"/>
    <path d="M5 14l-3-3 3-3 3 3-3 3z" fill="none" stroke="#fbbf24" stroke-width="2" stroke-linecap="round" stroke-linejoin="round"/>
    <path d="M19 10l3 3-3 3-3-3 3-3z" fill="none" stroke="#fbbf24" stroke-width="2" stroke-linecap="round" stroke-linejoin="round"/>
  </g>
</svg>
